# xmcd
#
# Track frame offsets: 
#        150
#        32869
#        53709
#        84861
#        113541
#        138026
#        161520
#        183904
#        216928
#        240867
#        268284
#
# Disc length: 3991 seconds
#
# Revision: 0
# Processed by: cddbd v1.5.1PL2 Copyright (c) Steve Scherf et al.
# Submitted via: ExactAudioCopy v0.95a5
#
DISCID=860f950b
DTITLE=Various Artist - Cuba Caribe
DYEAR=2001
DGENRE=Salsa
TTITLE0=Juan Formell and Los Van Van - La Fruta
TTITLE1=Adalberto Alvarez y su Son - Recordando al Sonero
TTITLE2=José Luis Cortés y NG La Banda - La Bruja
TTITLE3=Ello Revé y su Charangón - Te la quitarón
TTITLE4=Tamayo y su Salsa - El Fotógrafo
TTITLE5=Valentín y su grupo - ¿Que va a pasar?
TTITLE6=Los Papines - Clave para un timbero
TTITLE7=Afrocuba - Cambio de clima
TTITLE8=Orquesta Maravilla de Florida - Soy el negro
TTITLE9=Valentín y su grupo - Tírame la música, Valentín
TTITLE10=Juan Formell and Los Van Van - Hay mujeres
EXTD=
EXTT0=
EXTT1=
EXTT2=
EXTT3=
EXTT4=
EXTT5=
EXTT6=
EXTT7=
EXTT8=
EXTT9=
EXTT10=
PLAYORDER=
